PathFileType  4	(X/Y/Z) C:\Users\antoi\Documents\MyRepositories\mobilecap\ResultsAnalysis
DataRate	CameraRate	NumFrames	NumMarkers	Units	OrigDataRate	OrigDataStartFrame	OrigNumFrames
100.0	100.0	5	51	mm	100.0	93	184
Frame#	Time	r_knee			r_shank_antsup			r_ankle			r_calc			r_5meta			r_toe			L_knee			L_shank_antsup			L_ankle			L_calc			L_5meta			L_toe			r_sh2			r_sh3			r_sh4			L_sh2			L_sh3			r_thigh1			r_thigh2			r_thigh3			r_thigh4			r_thigh5			L_thigh1			L_thigh2			L_thigh3			L_thigh4			r.ASIS			r.PSIS			L.ASIS			L.PSIS			C7			R_Shoulder			L_Shoulder			R_Sternum			L_Sternum			R_humerus			R_elbow_med			R_elbow_lat			R_forearm			R_wrist_radius			R_wrist_ulna			L_humerus			L_elbow_med			L_elbow_lat			L_forearm			L_wrist_radius			L_wrist_ulna			R_HJC			L_HJC			R_HJC_reg			L_HJC_reg			
		X1	Y1	Z1	X2	Y2	Z2	X3	Y3	Z3	X4	Y4	Z4	X5	Y5	Z5	X6	Y6	Z6	X7	Y7	Z7	X8	Y8	Z8	X9	Y9	Z9	X10	Y10	Z10	X11	Y11	Z11	X12	Y12	Z12	X13	Y13	Z13	X14	Y14	Z14	X15	Y15	Z15	X16	Y16	Z16	X17	Y17	Z17	X18	Y18	Z18	X19	Y19	Z19	X20	Y20	Z20	X21	Y21	Z21	X22	Y22	Z22	X23	Y23	Z23	X24	Y24	Z24	X25	Y25	Z25	X26	Y26	Z26	X27	Y27	Z27	X28	Y28	Z28	X29	Y29	Z29	X30	Y30	Z30	X31	Y31	Z31	X32	Y32	Z32	X33	Y33	Z33	X34	Y34	Z34	X35	Y35	Z35	X36	Y36	Z36	X37	Y37	Z37	X38	Y38	Z38	X39	Y39	Z39	X40	Y40	Z40	X41	Y41	Z41	X42	Y42	Z42	X43	Y43	Z43	X44	Y44	Z44	X45	Y45	Z45	X46	Y46	Z46	X47	Y47	Z47	X48	Y48	Z48	X49	Y49	Z49	X50	Y50	Z50	X51	Y51	Z51	

93	0.92000000	614.69800	598.49085	-50.05353	545.40533	459.92758	-68.97123	251.89845	241.21163	-120.54864	210.17869	282.76167	-187.28503	277.50563	92.25764	-109.81113	330.78877	86.43796	-153.03134	802.31013	600.48588	-362.24555	872.11614	413.23077	-333.04211	833.43507	102.28290	-326.20579	778.31293	72.54754	-262.99099	985.68483	33.27868	-344.20248	1019.72657	72.35754	-286.47753	467.19159	379.80212	-89.40952	491.60073	499.85481	-32.75161	411.20522	422.20788	-44.30732	807.63519	410.09249	-391.94099	812.61631	293.80592	-371.73825	691.87373	882.02841	-15.93113	689.59069	771.01825	-12.09669	626.69559	749.40217	-20.10581	586.36791	883.69451	-63.59451	582.77257	765.93701	-54.64416	724.95891	895.01422	-387.94674	739.75377	757.25062	-388.94176	831.79663	899.94918	-372.31522	843.17504	765.79648	-368.14302	780.57140	1181.65648	-65.52821	606.48078	1203.58688	-170.96197	806.37367	1152.95778	-342.05832	613.45965	1201.39273	-262.68234	691.64970	1656.84906	-370.36688	754.76441	1667.57949	-181.70004	765.52673	1555.93352	-517.79788	822.49218	1576.83294	-304.77784	826.73900	1560.39998	-358.83491	656.85785	1446.23424	-42.46664	534.61902	1364.98689	-58.32624	554.66393	1397.09795	6.08911	584.90278	1195.84604	83.10796	587.75228	1102.99925	106.18458	557.89195	1114.48719	126.24904	777.03050	1252.66906	-497.37588	690.71854	1190.32312	-434.94242	708.11484	1169.30954	-504.88178	782.15592	977.15964	-495.98856	808.62977	903.34816	-473.83368	780.17699	900.70370	-495.60349	707.44453	1082.97857	-101.88355	717.15627	1068.55632	-298.57969	719.11934	1083.08526	-107.67742	733.10526	1078.68790	-291.37259	
94	0.93000000	631.96823	599.61345	-48.09076	560.91689	462.00707	-66.98667	263.90132	248.43192	-118.68105	222.97974	290.84206	-185.40282	286.73492	98.98452	-107.83470	340.17517	91.94153	-150.66001	808.37423	601.19921	-361.23366	876.43018	413.26834	-331.87656	834.42000	102.96710	-325.21524	778.70039	73.19465	-262.62964	986.08108	33.32765	-344.11542	1020.32518	70.98243	-285.61653	481.11504	383.03353	-87.61987	507.86485	502.80463	-30.70362	426.40939	426.46939	-42.16198	811.97649	410.81872	-390.81086	815.77302	294.44118	-370.61561	705.32772	883.87130	-15.71492	704.86167	772.81837	-11.30885	641.86116	750.47469	-18.63532	599.43317	883.76376	-62.38357	597.88625	766.02132	-53.14854	733.24792	896.18675	-387.38104	746.61960	758.41567	-388.33796	840.25286	900.27788	-372.05383	850.18452	765.90210	-367.38977	789.21330	1184.43406	-65.17685	615.94563	1205.66712	-172.19794	816.76096	1154.28698	-341.55403	623.57265	1203.16505	-263.74229	703.61307	1658.05487	-372.93935	767.02209	1670.02844	-184.53995	776.98616	1555.87488	-519.61001	834.10233	1577.91082	-306.82541	838.24253	1561.10141	-360.65537	667.35680	1450.61415	-43.63876	543.89686	1370.72631	-58.73906	564.97130	1402.60760	5.51306	593.89493	1201.09429	82.43468	596.10056	1108.23162	105.54527	566.14516	1119.87576	125.91152	788.64334	1252.89832	-498.17709	702.59907	1190.44293	-435.52549	719.81250	1169.37058	-505.54369	795.06112	977.61240	-496.46008	822.02874	903.95703	-474.28643	793.43385	901.18241	-495.87060	716.34727	1085.52574	-101.68314	727.42713	1070.09646	-298.23428	728.12793	1085.29565	-107.42589	743.43765	1080.27192	-291.10921	
95	0.94000000	648.94600	600.90254	-46.26930	576.32064	464.22549	-65.05429	276.35693	255.24678	-116.88536	235.93400	297.97083	-183.70627	297.37043	105.54798	-105.45892	350.85462	97.48031	-148.03371	814.09869	601.81937	-360.15771	880.53395	413.31025	-330.47654	835.50289	103.67193	-324.09447	779.10286	73.80101	-262.17523	986.43947	33.46438	-343.99119	1020.97078	69.54850	-284.70031	495.12506	386.28976	-85.86728	523.91006	505.91169	-28.93591	441.47081	430.76812	-40.30898	816.29965	411.49725	-389.60774	818.95666	295.04429	-369.43558	718.47584	885.81255	-15.54060	719.79716	774.71724	-10.52721	656.75719	751.68138	-17.29204	612.35278	883.97325	-61.35616	612.74420	766.29201	-51.83980	741.10089	897.21840	-386.76136	753.02032	759.46549	-387.41020	848.27323	900.46500	-371.69763	856.81463	765.90829	-366.55219	797.90299	1187.10647	-64.95515	625.35215	1207.64969	-173.36041	826.97345	1155.50113	-341.11494	633.55984	1204.79823	-264.73168	715.39878	1659.18657	-375.38152	778.86376	1672.22190	-187.19926	788.46953	1555.93820	-521.32908	845.47832	1578.91511	-308.69140	849.57867	1561.78301	-362.31164	677.58789	1454.70481	-44.63825	552.99367	1376.04613	-58.91518	575.03833	1407.75494	5.10277	602.87386	1206.06511	82.02498	604.51655	1113.17721	105.12571	574.55809	1124.96205	125.84003	800.00819	1253.23718	-499.03753	714.14546	1190.72740	-436.23644	731.14707	1169.60910	-506.32288	807.83235	978.27366	-496.95652	835.35249	904.82300	-474.79189	806.61024	901.87598	-496.12645	725.26547	1087.97141	-101.49748	737.54566	1071.51790	-297.89902	737.11762	1087.47929	-107.20764	753.61464	1081.74625	-290.83259	
96	0.95000000	665.61516	602.28599	-44.54803	591.64783	466.48212	-63.15725	289.27353	261.53702	-115.15315	249.10288	304.08085	-182.20829	309.30259	111.78113	-102.71562	362.77432	102.84104	-145.13150	819.52859	602.36969	-359.08597	884.41004	413.35778	-328.92991	836.63784	104.37568	-322.92890	779.51368	74.32505	-261.66153	986.74741	33.65484	-343.84002	1021.61946	68.13794	-283.81122	509.29957	389.47072	-84.12501	539.74870	509.04889	-27.40415	456.41581	434.96022	-38.71181	820.59723	412.13206	-388.43996	822.14433	295.62898	-368.30687	731.31966	887.79304	-15.35791	734.38294	776.65310	-9.72462	671.38686	752.93646	-16.08267	625.10826	884.27628	-60.49524	627.31781	766.68902	-50.68142	748.67569	898.16625	-386.15973	759.13690	760.43719	-386.31500	855.97331	900.56807	-371.21492	863.18932	765.86979	-365.65705	806.66907	1189.62943	-64.87559	634.71956	1209.53345	-174.38609	837.03320	1156.60242	-340.76240	643.43303	1206.30706	-265.60818	726.99678	1660.20316	-377.72166	790.27035	1674.14762	-189.69436	799.96142	1556.07069	-522.97031	856.61625	1579.83480	-310.40279	860.74123	1562.42770	-363.83283	687.55219	1458.45423	-45.52310	561.98404	1380.83801	-58.96037	584.85943	1412.47494	4.76075	611.79180	1210.72871	81.88178	612.95749	1117.81438	104.97469	583.09321	1129.73622	126.04571	811.14971	1253.61549	-499.99545	725.37715	1191.10800	-437.09972	742.15302	1169.94561	-507.22812	820.45745	979.06156	-497.45542	848.58055	905.87891	-475.30473	819.68523	902.70678	-496.35354	734.22724	1090.28550	-101.32937	747.50587	1072.83007	-297.58372	746.11022	1089.60639	-107.04793	763.63938	1083.11432	-290.57272	
97	0.96000000	681.98075	603.70144	-42.88184	606.92751	468.68370	-61.26808	302.64857	267.19134	-113.48292	262.57914	309.16254	-180.91418	322.31911	117.52540	-99.65920	375.79087	107.81823	-141.93752	824.68850	602.85577	-358.08821	888.03922	413.40161	-327.36154	837.77110	105.05483	-321.80305	779.92241	74.75814	-261.13349	987.00514	33.86228	-343.67817	1022.23096	66.83851	-283.02437	523.69641	392.48173	-82.35425	555.40251	512.09976	-26.05010	471.28370	438.91692	-37.31566	824.80709	412.71250	-387.39664	825.27918	296.19036	-367.31324	743.88697	889.75279	-15.11954	748.63310	778.56752	-8.87640	685.76576	754.16551	-14.98398	637.69761	884.62167	-59.76468	641.61706	767.14682	-49.62292	756.11571	899.07410	-385.64720	765.11669	761.35289	-385.24989	863.46641	900.61930	-370.59346	869.39183	765.80135	-364.73760	815.51695	1191.96504	-64.92885	644.06240	1211.31064	-175.24285	846.96073	1157.58101	-340.51061	653.20578	1207.70201	-266.35614	738.39879	1661.07813	-379.97664	801.24950	1675.80429	-192.04158	811.42871	1556.22234	-524.54323	867.52450	1580.66477	-311.98246	871.72906	1563.02106	-365.24225	697.27030	1461.82846	-46.35261	570.94066	1385.03436	-58.99031	594.44963	1416.73185	4.39449	620.61631	1215.06688	81.98464	621.39702	1122.13765	105.12190	591.68906	1134.19630	126.51374	822.10546	1253.97172	-501.06205	736.32580	1191.51466	-438.12587	752.90103	1170.30031	-508.25907	832.93958	979.89880	-497.94405	861.71105	907.05813	-475.79306	832.64930	903.59628	-496.54747	743.23839	1092.44035	-101.18120	757.30731	1074.03216	-297.29622	755.11620	1091.63111	-106.95830	773.51753	1084.36809	-290.35714	
